<svg width="1471" height="1031" viewBox="0 0 1471 1031" fill="none" xmlns="http://www.w3.org/2000/svg">
<line x1="278.5" y1="23.0001" x2="278.5" y2="923" stroke="#292B44"/>
<line x1="758.501" y1="23.0001" x2="758.501" y2="923" stroke="#292B44"/>
<line x1="338.5" y1="23.0001" x2="338.5" y2="923" stroke="#292B44"/>
<line x1="818.501" y1="23.0001" x2="818.501" y2="923" stroke="#292B44"/>
<line x1="398.5" y1="23.0001" x2="398.5" y2="923" stroke="#292B44"/>
<line x1="878.501" y1="23.0001" x2="878.501" y2="923" stroke="#292B44"/>
<line x1="458.5" y1="23.0001" x2="458.5" y2="923" stroke="#292B44"/>
<line x1="938.501" y1="23.0001" x2="938.501" y2="923" stroke="#292B44"/>
<line x1="518.5" y1="23.0001" x2="518.5" y2="923" stroke="#292B44"/>
<line x1="998.501" y1="23.0001" x2="998.501" y2="923" stroke="#292B44"/>
<line x1="578.5" y1="23.0001" x2="578.5" y2="923" stroke="#292B44"/>
<line x1="1058.5" y1="23.0001" x2="1058.5" y2="923" stroke="#292B44"/>
<line x1="638.5" y1="23.0001" x2="638.5" y2="923" stroke="#292B44"/>
<line x1="1118.5" y1="23.0001" x2="1118.5" y2="923" stroke="#292B44"/>
<line x1="698.501" y1="23.0001" x2="698.5" y2="923" stroke="#292B44"/>
<line x1="1178.5" y1="23.0001" x2="1178.5" y2="923" stroke="#292B44"/>
<line x1="308.5" y1="23.0001" x2="308.5" y2="923" stroke="#292B44"/>
<line x1="788.501" y1="23.0001" x2="788.501" y2="923" stroke="#292B44"/>
<line x1="368.5" y1="23.0001" x2="368.5" y2="923" stroke="#292B44"/>
<line x1="848.501" y1="23.0001" x2="848.501" y2="923" stroke="#292B44"/>
<line x1="428.5" y1="23.0001" x2="428.5" y2="923" stroke="#292B44"/>
<line x1="908.501" y1="23.0001" x2="908.501" y2="923" stroke="#292B44"/>
<line x1="488.5" y1="23.0001" x2="488.5" y2="923" stroke="#292B44"/>
<line x1="968.501" y1="23.0001" x2="968.501" y2="923" stroke="#292B44"/>
<line x1="548.5" y1="23.0001" x2="548.5" y2="923" stroke="#292B44"/>
<line x1="1028.5" y1="23.0001" x2="1028.5" y2="923" stroke="#292B44"/>
<line x1="608.5" y1="23.0001" x2="608.5" y2="923" stroke="#292B44"/>
<line x1="1088.5" y1="23.0001" x2="1088.5" y2="923" stroke="#292B44"/>
<line x1="668.5" y1="23.0001" x2="668.5" y2="923" stroke="#292B44"/>
<line x1="1148.5" y1="23.0001" x2="1148.5" y2="923" stroke="#292B44"/>
<line x1="728.501" y1="23.0001" x2="728.501" y2="923" stroke="#292B44"/>
<line x1="1193" y1="8.50012" x2="293" y2="8.50004" stroke="#292B44"/>
<line x1="1193" y1="488.501" x2="293" y2="488.501" stroke="#292B44"/>
<line x1="1193" y1="68.5002" x2="293" y2="68.5002" stroke="#292B44"/>
<line x1="1193" y1="548.501" x2="293" y2="548.501" stroke="#292B44"/>
<line x1="1193" y1="128.5" x2="293" y2="128.5" stroke="#292B44"/>
<line x1="1193" y1="608.501" x2="293" y2="608.501" stroke="#292B44"/>
<line x1="1193" y1="188.5" x2="293" y2="188.5" stroke="#292B44"/>
<line x1="1193" y1="668.501" x2="293" y2="668.501" stroke="#292B44"/>
<line x1="1193" y1="248.5" x2="293" y2="248.5" stroke="#292B44"/>
<line x1="1193" y1="728.501" x2="293" y2="728.501" stroke="#292B44"/>
<line x1="1193" y1="308.5" x2="293" y2="308.5" stroke="#292B44"/>
<line x1="1193" y1="788.501" x2="293" y2="788.501" stroke="#292B44"/>
<line x1="1193" y1="368.5" x2="293" y2="368.5" stroke="#292B44"/>
<line x1="1193" y1="848.501" x2="293" y2="848.501" stroke="#292B44"/>
<line x1="1193" y1="428.501" x2="293" y2="428.501" stroke="#292B44"/>
<line x1="1193" y1="908.501" x2="293" y2="908.501" stroke="#292B44"/>
<line x1="1193" y1="38.5002" x2="293" y2="38.5001" stroke="#292B44"/>
<line x1="1193" y1="518.501" x2="293" y2="518.501" stroke="#292B44"/>
<line x1="1193" y1="98.5002" x2="293" y2="98.5002" stroke="#292B44"/>
<line x1="1193" y1="578.501" x2="293" y2="578.501" stroke="#292B44"/>
<line x1="1193" y1="158.5" x2="293" y2="158.5" stroke="#292B44"/>
<line x1="1193" y1="638.501" x2="293" y2="638.501" stroke="#292B44"/>
<line x1="1193" y1="218.5" x2="293" y2="218.5" stroke="#292B44"/>
<line x1="1193" y1="698.501" x2="293" y2="698.501" stroke="#292B44"/>
<line x1="1193" y1="278.5" x2="293" y2="278.5" stroke="#292B44"/>
<line x1="1193" y1="758.501" x2="293" y2="758.501" stroke="#292B44"/>
<line x1="1193" y1="338.5" x2="293" y2="338.5" stroke="#292B44"/>
<line x1="1193" y1="818.501" x2="293" y2="818.501" stroke="#292B44"/>
<line x1="1193" y1="398.5" x2="293" y2="398.5" stroke="#292B44"/>
<line x1="1193" y1="878.501" x2="293" y2="878.501" stroke="#292B44"/>
<line x1="1193" y1="458.501" x2="293" y2="458.501" stroke="#292B44"/>
<rect x="271" width="930" height="930" fill="url(#paint0_radial_9_2187)"/>
<g filter="url(#filter0_f_9_2187)">
<rect x="300" y="451" width="871" height="280" fill="#2D2850"/>
</g>
<defs>
<filter id="filter0_f_9_2187" x="0" y="151" width="1471" height="880" filterUnits="userSpaceOnUse" color-interpolation-filters="sRGB">
<feFlood flood-opacity="0" result="BackgroundImageFix"/>
<feBlend mode="normal" in="SourceGraphic" in2="BackgroundImageFix" result="shape"/>
<feGaussianBlur stdDeviation="150" result="effect1_foregroundBlur_9_2187"/>
</filter>
<radialGradient id="paint0_radial_9_2187" cx="0" cy="0" r="1" gradientUnits="userSpaceOnUse" gradientTransform="translate(736 432) rotate(90) scale(498)">
<stop stop-color="#0C0E1A" stop-opacity="0"/>
<stop offset="1" stop-color="#0C0E1A"/>
</radialGradient>
</defs>
</svg>
